<?xml version="1.0" encoding="utf-8"?>
<!-- Generator: Adobe Illustrator 19.1.0, SVG Export Plug-In . SVG Version: 6.00 Build 0)  -->
<svg version="1.1" id="Layer_1" xmlns="http://www.w3.org/2000/svg" xmlns:xlink="http://www.w3.org/1999/xlink" x="0px" y="0px"
	 viewBox="0 0 216 68.4" style="enable-background:new 0 0 216 68.4;" xml:space="preserve">
<style type="text/css">
	.st0{fill:#ED1C24;}
	.st1{fill:#FFFFFF;}
</style>
<rect x="0" y="0" class="st0" width="216" height="68.4"/>
<g>
	<path class="st1" d="M19,15h25.3v6.6H26.5v8.3h10.9v5.6H26.5v10.8h17.9v6.5H19V15z"/>
	<path class="st1" d="M55.2,42.2c1.3,1.9,2.5,3.3,3.7,4c1.2,0.8,2.6,1.1,4.3,1.1c2,0,3.5-0.5,4.6-1.5c1.1-1,1.7-2.1,1.7-3.5
		c0-1.2-0.4-2.2-1.3-3.1c-0.9-0.9-2.9-1.7-6-2.6c-4.2-1.1-7.2-2.5-9-4.1c-2.3-2-3.4-4.5-3.4-7.5c0-3.2,1.1-5.8,3.4-7.9
		c2.3-2.1,5.4-3.1,9.3-3.1c2.2,0,4.2,0.4,6,1.1c1.8,0.7,3.2,1.7,4.5,2.9c0.8,0.8,1.6,1.8,2.4,3.2L69.1,24c-1.1-1.5-2.1-2.6-3.2-3.3
		c-1.1-0.7-2.3-1-3.7-1c-1.7,0-3,0.5-4,1.4c-1,0.9-1.5,2.1-1.5,3.4c0,1.1,0.4,2,1.2,2.7c0.8,0.8,2.8,1.5,6.1,2.3
		c3.2,0.8,5.7,1.7,7.4,2.8c1.7,1.1,2.9,2.5,3.8,4.2c0.8,1.7,1.2,3.5,1.2,5.3c0,1.9-0.5,3.8-1.6,5.8C73.7,49.5,72.1,51,70,52
		c-2.1,1-4.5,1.6-7.3,1.6c-2.6,0-4.8-0.4-6.7-1.3c-1.9-0.9-3.5-2-4.8-3.5c-0.9-0.9-1.7-2.2-2.6-3.9L55.2,42.2z"/>
	<path class="st1" d="M87.9,42.2c1.3,1.9,2.5,3.3,3.7,4c1.2,0.8,2.6,1.1,4.3,1.1c2,0,3.5-0.5,4.6-1.5c1.1-1,1.7-2.1,1.7-3.5
		c0-1.2-0.4-2.2-1.3-3.1c-0.9-0.9-2.9-1.7-6-2.6c-4.2-1.1-7.2-2.5-9-4.1c-2.3-2-3.4-4.5-3.4-7.5c0-3.2,1.1-5.8,3.4-7.9
		c2.3-2.1,5.4-3.1,9.3-3.1c2.2,0,4.2,0.4,6,1.1c1.8,0.7,3.2,1.7,4.5,2.9c0.8,0.8,1.6,1.8,2.4,3.2l-6.2,2.5c-1.1-1.5-2.1-2.6-3.2-3.3
		c-1.1-0.7-2.3-1-3.7-1c-1.7,0-3,0.5-4,1.4c-1,0.9-1.5,2.1-1.5,3.4c0,1.1,0.4,2,1.2,2.7c0.8,0.8,2.8,1.5,6.1,2.3
		c3.2,0.8,5.7,1.7,7.4,2.8c1.7,1.1,2.9,2.5,3.8,4.2c0.8,1.7,1.2,3.5,1.2,5.3c0,1.9-0.5,3.8-1.6,5.8c-1.1,1.9-2.7,3.4-4.8,4.4
		c-2.1,1-4.5,1.6-7.3,1.6c-2.6,0-4.8-0.4-6.7-1.3c-1.9-0.9-3.5-2-4.8-3.5c-0.9-0.9-1.7-2.2-2.6-3.9L87.9,42.2z"/>
	<path class="st1" d="M124.7,15h7.9l12.3,37.8h-7.3l-2.9-8.9h-12.1l-2.9,8.9h-7.3L124.7,15z M128.6,25.2l-4.3,13.2h8.6L128.6,25.2z"
		/>
	<path class="st1" d="M141.9,15h7.7l6.8,13.1l6.7-13.1h7.8l-10.7,21v16.8h-7.5V36L141.9,15z"/>
	<path class="st1" d="M179.8,42.2c1.3,1.9,2.5,3.3,3.7,4c1.2,0.8,2.6,1.1,4.3,1.1c2,0,3.5-0.5,4.6-1.5c1.1-1,1.7-2.1,1.7-3.5
		c0-1.2-0.4-2.2-1.3-3.1c-0.9-0.9-2.9-1.7-6-2.6c-4.2-1.1-7.2-2.5-9-4.1c-2.3-2-3.4-4.5-3.4-7.5c0-3.2,1.1-5.8,3.4-7.9
		c2.3-2.1,5.4-3.1,9.3-3.1c2.2,0,4.2,0.4,6,1.1c1.8,0.7,3.2,1.7,4.5,2.9c0.8,0.8,1.6,1.8,2.4,3.2l-6.2,2.5c-1.1-1.5-2.1-2.6-3.2-3.3
		c-1.1-0.7-2.3-1-3.7-1c-1.7,0-3,0.5-4,1.4c-1,0.9-1.5,2.1-1.5,3.4c0,1.1,0.4,2,1.2,2.7c0.8,0.8,2.8,1.5,6.1,2.3
		c3.2,0.8,5.7,1.7,7.4,2.8c1.7,1.1,2.9,2.5,3.8,4.2c0.8,1.7,1.2,3.5,1.2,5.3c0,1.9-0.5,3.8-1.6,5.8c-1.1,1.9-2.7,3.4-4.8,4.4
		c-2.1,1-4.5,1.6-7.3,1.6c-2.6,0-4.8-0.4-6.7-1.3c-1.9-0.9-3.5-2-4.8-3.5c-0.9-0.9-1.7-2.2-2.6-3.9L179.8,42.2z"/>
</g>
</svg>
